<svg width="16" height="16" viewBox="0 0 16 16" fill="none" xmlns="http://www.w3.org/2000/svg">
<g clip-path="url(#clip0_236_179)">
<path d="M8.03461 9.88566L8.97741 10.8285L11.8058 8.00005L8.97741 5.17162L8.03461 6.11443L9.25356 7.33338H4.2288V8.66671H9.25356L8.03461 9.88566Z" fill="white"/>
<path fill-rule="evenodd" clip-rule="evenodd" d="M13.1854 13.1855C16.0493 10.3216 16.0493 5.67842 13.1854 2.81457C10.3216 -0.0492741 5.67838 -0.0492741 2.81454 2.81457C-0.0493046 5.67842 -0.0493046 10.3216 2.81454 13.1855C5.67838 16.0493 10.3216 16.0493 13.1854 13.1855ZM12.2426 12.2427C14.5858 9.89952 14.5858 6.10053 12.2426 3.75738C9.89948 1.41423 6.10049 1.41423 3.75735 3.75738C1.4142 6.10053 1.4142 9.89952 3.75735 12.2427C6.10049 14.5858 9.89948 14.5858 12.2426 12.2427Z" fill="white"/>
</g>
<defs>
<clipPath id="clip0_236_179">
<rect width="16" height="16" fill="white"/>
</clipPath>
</defs>
</svg>
