<svg width="16" height="16" viewBox="0 0 16 16" fill="none" xmlns="http://www.w3.org/2000/svg">
<g clip-path="url(#clip0_236_171)">
<path d="M8.03462 9.88566L8.97743 10.8285L11.8059 8.00005L8.97743 5.17162L8.03462 6.11443L9.25357 7.33338H4.22881V8.66671H9.25357L8.03462 9.88566Z" fill="#303188"/>
<path fill-rule="evenodd" clip-rule="evenodd" d="M13.1854 13.1855C16.0493 10.3216 16.0493 5.67842 13.1854 2.81457C10.3216 -0.0492741 5.6784 -0.0492741 2.81455 2.81457C-0.0492936 5.67842 -0.0492936 10.3216 2.81455 13.1855C5.6784 16.0493 10.3216 16.0493 13.1854 13.1855ZM12.2426 12.2427C14.5858 9.89952 14.5858 6.10053 12.2426 3.75738C9.89949 1.41423 6.10051 1.41423 3.75736 3.75738C1.41421 6.10053 1.41421 9.89952 3.75736 12.2427C6.10051 14.5858 9.89949 14.5858 12.2426 12.2427Z" fill="#303188"/>
</g>
<defs>
<clipPath id="clip0_236_171">
<rect width="16" height="16" fill="white"/>
</clipPath>
</defs>
</svg>
