<svg width="14" height="14" viewBox="0 0 14 14" fill="none" xmlns="http://www.w3.org/2000/svg">
<path d="M5.71875 1.21875L0.21875 6.46875C0.0729167 6.61458 0 6.79167 0 7C0 7.20833 0.0729167 7.38542 0.21875 7.53125L5.71875 12.7812C6.09375 13.0729 6.44792 13.0729 6.78125 12.7812C7.07292 12.4062 7.07292 12.0521 6.78125 11.7188L2.625 7.75H13.25C13.7083 7.70833 13.9583 7.45833 14 7C13.9583 6.54167 13.7083 6.29167 13.25 6.25H2.625L6.78125 2.28125C7.07292 1.94792 7.07292 1.59375 6.78125 1.21875C6.44792 0.927083 6.09375 0.927083 5.71875 1.21875Z" fill="#303188"/>
</svg>
