<svg width="34" height="34" viewBox="0 0 34 34" fill="none" xmlns="http://www.w3.org/2000/svg">
<path d="M21.1042 12.3573L20.8331 11.7028C20.7904 11.7205 20.7494 11.7424 20.7106 11.7683C20.6329 11.8202 20.5666 11.8868 20.5152 11.9637L21.1042 12.3573ZM21.1042 12.3573L20.5152 11.9637M21.1042 12.3573L20.5152 11.9637M21.1042 12.3573L21.7989 12.2191C21.8079 12.2643 21.8125 12.3105 21.8125 12.3573C21.8125 12.4507 21.794 12.5428 21.7586 12.6283C21.7586 12.6283 21.7586 12.6283 21.7586 12.6283C21.7409 12.671 21.719 12.712 21.6931 12.7508M21.1042 12.3573L21.7989 12.2191C21.7718 12.0827 21.7048 11.9562 21.605 11.8564C21.5052 11.7566 21.3788 11.6897 21.2424 11.6625C21.1972 11.6535 21.1509 11.6489 21.1042 11.6489C21.0107 11.6489 20.9186 11.6674 20.8331 11.7028L21.1042 12.3573ZM21.1042 12.3573L20.5152 11.9637M21.1042 12.3573L21.6931 12.7508M21.1042 12.3573L21.6931 12.7508M20.5152 11.9637C20.4896 12.0021 20.4676 12.0431 20.4498 12.0862C20.414 12.1725 20.3958 12.2647 20.3958 12.3573C20.3958 12.4034 20.4003 12.4497 20.4094 12.4954C20.414 12.5184 20.4197 12.541 20.4264 12.5632C20.5092 12.6371 20.5901 12.7136 20.669 12.7924C20.7479 12.8713 20.8243 12.9522 20.8982 13.035C20.9204 13.0417 20.943 13.0474 20.966 13.052C21.0117 13.0611 21.058 13.0656 21.1042 13.0656C21.1967 13.0656 21.2889 13.0474 21.3752 13.0117C21.4183 12.9938 21.4593 12.9719 21.4977 12.9462C21.5747 12.8948 21.6412 12.8285 21.6931 12.7508" fill="#444444" stroke="#444444" stroke-width="4"/>
<path d="M16.5361 0.461426C7.41881 0.461426 0 7.87818 0 16.9965C0 26.1148 7.41881 33.5316 16.5361 33.5316C25.6534 33.5316 33.0722 26.1148 33.0722 16.9965C33.0722 7.87818 25.6534 0.461426 16.5361 0.461426ZM16.5361 32.4302C8.02622 32.4302 1.10344 25.5064 1.10344 16.9965C1.10344 8.48661 8.02622 1.5628 16.5361 1.5628C25.046 1.5628 31.9688 8.48661 31.9688 16.9965C31.9688 25.5064 25.046 32.4302 16.5361 32.4302Z" fill="#444444"/>
</svg>
