<svg width="127" height="34" viewBox="0 0 127 34" fill="none" xmlns="http://www.w3.org/2000/svg">
<g clip-path="url(#clip0_103_1313)">
<path d="M114.125 12.7868C113.426 12.7868 112.908 12.9632 112.503 13.1859C112.438 12.9549 112.224 12.7858 111.973 12.8363H108.895C108.591 12.7858 108.345 13.0323 108.439 13.352V24.6957C108.345 24.9845 108.591 25.232 108.895 25.2113H111.973C112.277 25.232 112.523 24.9845 112.523 24.6802L112.522 17.8245C112.521 17.8214 112.51 17.4935 112.717 17.2676C112.883 17.0882 113.169 16.9964 113.564 16.9964C114.222 16.9964 114.515 17.2656 114.624 17.8678V24.6802C114.516 24.9845 114.762 25.232 115.066 25.2113H118.31C118.614 25.232 118.86 24.9845 118.751 24.6802V17.6389C118.859 14.0584 116.309 12.7868 114.125 12.7868ZM117.758 24.1801H115.617V17.8678C115.617 16.6499 114.83 15.895 113.565 15.895C112.849 15.895 112.292 16.1054 111.909 16.52C111.376 17.0975 111.417 17.8296 111.531 17.9926V24.1801H109.446V13.8882H111.422V14.2347C111.421 14.3379 111.449 14.4393 111.504 14.5271C111.558 14.615 111.636 14.6857 111.728 14.7313C111.821 14.7769 111.925 14.7954 112.027 14.7847C112.13 14.774 112.228 14.7346 112.309 14.6709L112.453 14.5596C112.871 14.2306 113.303 13.8892 114.126 13.8892C114.978 13.8892 117.759 14.1605 117.759 17.6399V24.1801H117.758ZM105.344 7.64502C104.187 7.64502 103.246 8.58552 103.246 9.74258C103.246 10.8996 104.187 11.8401 105.344 11.8401C106.501 11.8401 107.441 10.8996 107.441 9.74258C107.441 8.58552 106.501 7.64502 105.344 7.64502ZM105.344 10.7388C104.795 10.7388 104.348 10.2912 104.348 9.74258C104.348 9.19396 104.795 8.74639 105.344 8.74639C105.892 8.74639 106.34 9.19396 106.34 9.74258C106.34 10.2912 105.892 10.7388 105.344 10.7388ZM106.816 12.7858H103.756C103.451 12.7858 103.205 13.0323 103.281 13.352V24.6957C103.205 24.9845 103.451 25.232 103.756 25.2113H106.816C107.121 25.232 107.367 24.9845 107.367 24.6802V13.3365C107.367 13.1904 107.309 13.0504 107.206 12.9471C107.102 12.8438 106.962 12.7858 106.816 12.7858ZM106.375 24.1801H104.306V13.8882H106.375V24.1801Z" fill="#444444"/>
<path d="M110.5 0.42627C101.382 0.42627 93.9649 7.84302 93.9649 16.9613C93.9649 26.0796 101.382 33.4964 110.5 33.4964C119.618 33.4964 127.035 26.0796 127.035 16.9613C127.035 7.84302 119.618 0.42627 110.5 0.42627ZM110.5 32.395C101.99 32.395 95.0663 25.4712 95.0663 16.9613C95.0663 8.45146 101.99 1.52764 110.5 1.52764C119.01 1.52764 125.934 8.45146 125.934 16.9613C125.934 25.4712 119.01 32.395 110.5 32.395Z" fill="#444444"/>
</g>
<path d="M68.1042 12.3573L67.8331 11.7028C67.7904 11.7205 67.7494 11.7424 67.7106 11.7683C67.6329 11.8202 67.5666 11.8868 67.5152 11.9637L68.1042 12.3573ZM68.1042 12.3573L67.5152 11.9637M68.1042 12.3573L67.5152 11.9637M68.1042 12.3573L68.7989 12.2191C68.8079 12.2643 68.8125 12.3105 68.8125 12.3573C68.8125 12.4507 68.794 12.5428 68.7586 12.6283C68.7586 12.6283 68.7586 12.6283 68.7586 12.6283C68.7409 12.671 68.719 12.712 68.6931 12.7508M68.1042 12.3573L68.7989 12.2191C68.7718 12.0827 68.7048 11.9562 68.605 11.8564C68.5052 11.7566 68.3788 11.6897 68.2424 11.6625C68.1972 11.6535 68.1509 11.6489 68.1042 11.6489C68.0107 11.6489 67.9186 11.6674 67.8331 11.7028L68.1042 12.3573ZM68.1042 12.3573L67.5152 11.9637M68.1042 12.3573L68.6931 12.7508M68.1042 12.3573L68.6931 12.7508M67.5152 11.9637C67.4896 12.0021 67.4676 12.0431 67.4498 12.0862C67.414 12.1725 67.3958 12.2647 67.3958 12.3573C67.3958 12.4034 67.4003 12.4497 67.4094 12.4954C67.414 12.5184 67.4197 12.541 67.4264 12.5632C67.5092 12.6371 67.5901 12.7136 67.669 12.7924C67.7479 12.8713 67.8243 12.9522 67.8982 13.035C67.9204 13.0417 67.943 13.0474 67.966 13.052C68.0117 13.0611 68.058 13.0656 68.1042 13.0656C68.1967 13.0656 68.2889 13.0474 68.3752 13.0117C68.4183 12.9938 68.4593 12.9719 68.4977 12.9462C68.5747 12.8948 68.6412 12.8285 68.6931 12.7508" fill="#444444" stroke="#444444" stroke-width="4"/>
<path d="M63.5361 0.461426C54.4188 0.461426 47 7.87818 47 16.9965C47 26.1148 54.4188 33.5316 63.5361 33.5316C72.6534 33.5316 80.0722 26.1148 80.0722 16.9965C80.0722 7.87818 72.6534 0.461426 63.5361 0.461426ZM63.5361 32.4302C55.0262 32.4302 48.1034 25.5064 48.1034 16.9965C48.1034 8.48661 55.0262 1.5628 63.5361 1.5628C72.046 1.5628 78.9688 8.48661 78.9688 16.9965C78.9688 25.5064 72.046 32.4302 63.5361 32.4302Z" fill="#444444"/>
<path d="M16.5361 0.461426C7.41881 0.461426 0 7.87818 0 16.9965C0 26.1148 7.41881 33.5316 16.5361 33.5316C25.6534 33.5316 33.0722 26.1148 33.0722 16.9965C33.0722 7.87818 25.6534 0.461426 16.5361 0.461426ZM16.5361 32.4302C8.02622 32.4302 1.10344 25.5064 1.10344 16.9965C1.10344 8.48661 8.02622 1.5628 16.5361 1.5628C25.046 1.5628 31.9688 8.48661 31.9688 16.9965C31.9688 25.5064 25.046 32.4302 16.5361 32.4302Z" fill="#444444"/>
<path d="M20.1455 7.71501H17.3941C13.8899 7.67994 13.4423 9.84866 13.4423 12.1958V13.9025H11.8955C11.8255 13.8932 11.7544 13.9001 11.6876 13.9227C11.6208 13.9453 11.5601 13.983 11.5102 14.0329C11.4603 14.0828 11.4226 14.1435 11.4 14.2103C11.3774 14.2771 11.3705 14.3482 11.3798 14.4181V17.5119C11.3705 17.5818 11.3774 17.6529 11.4 17.7197C11.4226 17.7866 11.4603 17.8473 11.5102 17.8971C11.5601 17.947 11.6208 17.9847 11.6876 18.0073C11.7544 18.0299 11.8255 18.0368 11.8955 18.0275H13.4423V25.7619C13.4337 25.8319 13.4413 25.903 13.4643 25.9697C13.4874 26.0364 13.5254 26.0969 13.5755 26.1467C13.6255 26.1964 13.6863 26.2341 13.7531 26.2567C13.8199 26.2794 13.8911 26.2865 13.9611 26.2775H17.1115C17.4157 26.3126 17.6622 26.0661 17.5653 25.7619L17.5673 18.0275H20.1455C20.2154 18.0368 20.2865 18.0299 20.3533 18.0073C20.4201 17.9847 20.4808 17.947 20.5307 17.8971C20.5806 17.8473 20.6183 17.7866 20.6409 17.7197C20.6635 17.6529 20.6704 17.5818 20.6611 17.5119V14.4181C20.6704 14.3482 20.6635 14.2771 20.6409 14.2103C20.6183 14.1435 20.5806 14.0828 20.5307 14.0329C20.4808 13.983 20.4201 13.9453 20.3533 13.9227C20.2865 13.9001 20.2154 13.8932 20.1455 13.9025H17.5642L17.5673 12.3556C17.6674 11.6967 17.6674 11.8039 18.2789 11.84H20.1238C20.2671 11.808 20.4198 11.8256 20.527 11.7214C20.6343 11.6173 20.6961 11.4749 20.6601 11.3244V8.23063C20.6696 8.16077 20.6628 8.08966 20.6404 8.02283C20.6179 7.95601 20.5803 7.89527 20.5305 7.84537C20.4807 7.79547 20.42 7.75774 20.3532 7.73512C20.2864 7.71251 20.2153 7.70563 20.1455 7.71501ZM19.5937 10.751L18.3006 10.7015C16.699 10.7015 16.565 11.5709 16.565 12.4608L16.5608 14.4161C16.5607 14.4885 16.5748 14.5602 16.6025 14.6271C16.6301 14.6941 16.6706 14.7549 16.7218 14.8061C16.7729 14.8574 16.8337 14.898 16.9005 14.9258C16.9674 14.9535 17.0391 14.9678 17.1115 14.9678H19.6298V16.9602H17.1136C16.9674 16.9602 16.8273 17.0181 16.7238 17.1214C16.6204 17.2246 16.5621 17.3647 16.5619 17.5109L16.5608 25.2463H14.4736V17.5119C14.4736 17.2077 14.2663 16.9612 13.9611 16.9612H12.4111V14.9688H13.9611C14.0334 14.9689 14.1051 14.9548 14.172 14.9272C14.2389 14.8996 14.2996 14.8591 14.3509 14.8079C14.454 14.7038 14.4726 14.5635 14.4726 14.4171V12.1948C14.4726 9.88269 14.9397 8.78132 17.3931 8.78132H19.5927V10.751H19.5937Z" fill="#444444"/>
<defs>
<clipPath id="clip0_103_1313">
<rect width="33" height="33" fill="white" transform="translate(94 0.461426)"/>
</clipPath>
</defs>
</svg>
