<svg width="86" height="14" viewBox="0 0 86 14" fill="none" xmlns="http://www.w3.org/2000/svg">
<path d="M12.8242 6.25517L10.3578 8.40767L11.0966 11.6124C11.1357 11.7799 11.1246 11.9552 11.0646 12.1165C11.0046 12.2777 10.8983 12.4176 10.7592 12.5188C10.6201 12.62 10.4542 12.678 10.2824 12.6854C10.1105 12.6928 9.94024 12.6494 9.79289 12.5606L6.99781 10.8653L4.20875 12.5606C4.06141 12.6494 3.89115 12.6928 3.71928 12.6854C3.54741 12.678 3.38154 12.62 3.24242 12.5188C3.10329 12.4176 2.99709 12.2777 2.93707 12.1165C2.87706 11.9552 2.8659 11.7799 2.905 11.6124L3.64273 8.41095L1.17578 6.25517C1.0453 6.14264 0.950951 5.99408 0.904562 5.82814C0.858172 5.6622 0.861809 5.48625 0.915016 5.32237C0.968223 5.15849 1.06863 5.01396 1.20365 4.90691C1.33867 4.79987 1.50229 4.73507 1.67398 4.72064L4.9257 4.439L6.195 1.4115C6.26128 1.25264 6.37309 1.11694 6.51634 1.0215C6.65958 0.926051 6.82787 0.875122 7 0.875122C7.17213 0.875122 7.34042 0.926051 7.48366 1.0215C7.62691 1.11694 7.73872 1.25264 7.805 1.4115L9.07812 4.439L12.3288 4.72064C12.5005 4.73507 12.6641 4.79987 12.7991 4.90691C12.9341 5.01396 13.0345 5.15849 13.0877 5.32237C13.1409 5.48625 13.1446 5.6622 13.0982 5.82814C13.0518 5.99408 12.9574 6.14264 12.827 6.25517H12.8242Z" fill="#FFCE20"/>
<path d="M13.0812 5.14551C13.0283 4.98221 12.9284 4.8381 12.7941 4.73113C12.6598 4.62416 12.497 4.55907 12.326 4.54395L9.07812 4.26395L7.805 1.23645C7.73872 1.07759 7.62691 0.941895 7.48366 0.846449C7.34042 0.751003 7.17213 0.700073 7 0.700073C6.82787 0.700073 6.65958 0.751003 6.51634 0.846449C6.37309 0.941895 6.26128 1.07759 6.195 1.23645L4.9257 4.26395L1.67398 4.54559C1.50229 4.56002 1.33867 4.62482 1.20365 4.73186C1.06863 4.83891 0.968223 4.98344 0.915016 5.14732C0.861809 5.3112 0.858172 5.48715 0.904562 5.65309C0.950951 5.81903 1.0453 5.96759 1.17578 6.08012L3.64273 8.2359L2.90336 11.4373C2.86426 11.6048 2.87542 11.7802 2.93543 11.9414C2.99545 12.1026 3.10165 12.2426 3.24078 12.3438C3.3799 12.445 3.54577 12.5029 3.71764 12.5103C3.88951 12.5178 4.05976 12.4744 4.20711 12.3856L6.99617 10.6903L9.79125 12.3856C9.93859 12.4744 10.1088 12.5178 10.2807 12.5103C10.4526 12.5029 10.6185 12.445 10.7576 12.3438C10.8967 12.2426 11.0029 12.1026 11.0629 11.9414C11.1229 11.7802 11.1341 11.6048 11.095 11.4373L10.3562 8.23262L12.8226 6.08012C12.953 5.9672 13.0472 5.81822 13.0932 5.65193C13.1393 5.48563 13.1351 5.30944 13.0812 5.14551ZM12.2489 5.41895L9.7825 7.57145C9.66246 7.67587 9.57316 7.81104 9.52421 7.96242C9.47526 8.1138 9.46851 8.27566 9.50469 8.43059L10.2457 11.6375L7.45281 9.94215C7.31655 9.85917 7.16009 9.81528 7.00055 9.81528C6.84101 9.81528 6.68454 9.85917 6.54828 9.94215L3.75922 11.6375L4.49531 8.43278C4.53149 8.27785 4.52474 8.11598 4.47579 7.9646C4.42684 7.81322 4.33754 7.67805 4.2175 7.57364L1.75 5.42223C1.7498 5.4206 1.7498 5.41894 1.75 5.41731L5.00063 5.13621C5.15933 5.12223 5.3112 5.06517 5.43986 4.97121C5.56852 4.87724 5.66908 4.74993 5.7307 4.60301L7 1.57934L8.26875 4.60301C8.33037 4.74993 8.43093 4.87724 8.55959 4.97121C8.68825 5.06517 8.84012 5.12223 8.99883 5.13621L12.25 5.41731C12.25 5.41731 12.25 5.42059 12.25 5.42114L12.2489 5.41895Z" fill="#FFCE20"/>
<path d="M30.8242 6.25517L28.3578 8.40767L29.0966 11.6124C29.1357 11.7799 29.1246 11.9552 29.0646 12.1165C29.0046 12.2777 28.8983 12.4176 28.7592 12.5188C28.6201 12.62 28.4542 12.678 28.2824 12.6854C28.1105 12.6928 27.9402 12.6494 27.7929 12.5606L24.9978 10.8653L22.2088 12.5606C22.0614 12.6494 21.8912 12.6928 21.7193 12.6854C21.5474 12.678 21.3815 12.62 21.2424 12.5188C21.1033 12.4176 20.9971 12.2777 20.9371 12.1165C20.8771 11.9552 20.8659 11.7799 20.905 11.6124L21.6427 8.41095L19.1758 6.25517C19.0453 6.14264 18.951 5.99408 18.9046 5.82814C18.8582 5.6622 18.8618 5.48625 18.915 5.32237C18.9682 5.15849 19.0686 5.01396 19.2036 4.90691C19.3387 4.79987 19.5023 4.73507 19.674 4.72064L22.9257 4.439L24.195 1.4115C24.2613 1.25264 24.3731 1.11694 24.5163 1.0215C24.6596 0.926051 24.8279 0.875122 25 0.875122C25.1721 0.875122 25.3404 0.926051 25.4837 1.0215C25.6269 1.11694 25.7387 1.25264 25.805 1.4115L27.0781 4.439L30.3288 4.72064C30.5005 4.73507 30.6641 4.79987 30.7991 4.90691C30.9341 5.01396 31.0345 5.15849 31.0877 5.32237C31.1409 5.48625 31.1446 5.6622 31.0982 5.82814C31.0518 5.99408 30.9574 6.14264 30.827 6.25517H30.8242Z" fill="#FFCE20"/>
<path d="M31.0812 5.14551C31.0283 4.98221 30.9284 4.8381 30.7941 4.73113C30.6598 4.62416 30.497 4.55907 30.326 4.54395L27.0781 4.26395L25.805 1.23645C25.7387 1.07759 25.6269 0.941895 25.4837 0.846449C25.3404 0.751003 25.1721 0.700073 25 0.700073C24.8279 0.700073 24.6596 0.751003 24.5163 0.846449C24.3731 0.941895 24.2613 1.07759 24.195 1.23645L22.9257 4.26395L19.674 4.54559C19.5023 4.56002 19.3387 4.62482 19.2036 4.73186C19.0686 4.83891 18.9682 4.98344 18.915 5.14732C18.8618 5.3112 18.8582 5.48715 18.9046 5.65309C18.951 5.81903 19.0453 5.96759 19.1758 6.08012L21.6427 8.2359L20.9034 11.4373C20.8643 11.6048 20.8754 11.7802 20.9354 11.9414C20.9954 12.1026 21.1017 12.2426 21.2408 12.3438C21.3799 12.445 21.5458 12.5029 21.7176 12.5103C21.8895 12.5178 22.0598 12.4744 22.2071 12.3856L24.9962 10.6903L27.7912 12.3856C27.9386 12.4744 28.1088 12.5178 28.2807 12.5103C28.4526 12.5029 28.6185 12.445 28.7576 12.3438C28.8967 12.2426 29.0029 12.1026 29.0629 11.9414C29.1229 11.7802 29.1341 11.6048 29.095 11.4373L28.3562 8.23262L30.8226 6.08012C30.953 5.9672 31.0472 5.81822 31.0932 5.65193C31.1393 5.48563 31.1351 5.30944 31.0812 5.14551ZM30.2489 5.41895L27.7825 7.57145C27.6625 7.67587 27.5732 7.81104 27.5242 7.96242C27.4753 8.1138 27.4685 8.27566 27.5047 8.43059L28.2457 11.6375L25.4528 9.94215C25.3166 9.85917 25.1601 9.81528 25.0005 9.81528C24.841 9.81528 24.6845 9.85917 24.5483 9.94215L21.7592 11.6375L22.4953 8.43278C22.5315 8.27785 22.5247 8.11598 22.4758 7.9646C22.4268 7.81322 22.3375 7.67805 22.2175 7.57364L19.75 5.42223C19.7498 5.4206 19.7498 5.41894 19.75 5.41731L23.0006 5.13621C23.1593 5.12223 23.3112 5.06517 23.4399 4.97121C23.5685 4.87724 23.6691 4.74993 23.7307 4.60301L25 1.57934L26.2687 4.60301C26.3304 4.74993 26.4309 4.87724 26.5596 4.97121C26.6883 5.06517 26.8401 5.12223 26.9988 5.13621L30.25 5.41731C30.25 5.41731 30.25 5.42059 30.25 5.42114L30.2489 5.41895Z" fill="#FFCE20"/>
<path d="M48.8242 6.25517L46.3578 8.40767L47.0966 11.6124C47.1357 11.7799 47.1246 11.9552 47.0646 12.1165C47.0046 12.2777 46.8983 12.4176 46.7592 12.5188C46.6201 12.62 46.4542 12.678 46.2824 12.6854C46.1105 12.6928 45.9402 12.6494 45.7929 12.5606L42.9978 10.8653L40.2088 12.5606C40.0614 12.6494 39.8912 12.6928 39.7193 12.6854C39.5474 12.678 39.3815 12.62 39.2424 12.5188C39.1033 12.4176 38.9971 12.2777 38.9371 12.1165C38.8771 11.9552 38.8659 11.7799 38.905 11.6124L39.6427 8.41095L37.1758 6.25517C37.0453 6.14264 36.951 5.99408 36.9046 5.82814C36.8582 5.6622 36.8618 5.48625 36.915 5.32237C36.9682 5.15849 37.0686 5.01396 37.2036 4.90691C37.3387 4.79987 37.5023 4.73507 37.674 4.72064L40.9257 4.439L42.195 1.4115C42.2613 1.25264 42.3731 1.11694 42.5163 1.0215C42.6596 0.926051 42.8279 0.875122 43 0.875122C43.1721 0.875122 43.3404 0.926051 43.4837 1.0215C43.6269 1.11694 43.7387 1.25264 43.805 1.4115L45.0781 4.439L48.3288 4.72064C48.5005 4.73507 48.6641 4.79987 48.7991 4.90691C48.9341 5.01396 49.0345 5.15849 49.0877 5.32237C49.1409 5.48625 49.1446 5.6622 49.0982 5.82814C49.0518 5.99408 48.9574 6.14264 48.827 6.25517H48.8242Z" fill="#FFCE20"/>
<path d="M49.0812 5.14551C49.0283 4.98221 48.9284 4.8381 48.7941 4.73113C48.6598 4.62416 48.497 4.55907 48.326 4.54395L45.0781 4.26395L43.805 1.23645C43.7387 1.07759 43.6269 0.941895 43.4837 0.846449C43.3404 0.751003 43.1721 0.700073 43 0.700073C42.8279 0.700073 42.6596 0.751003 42.5163 0.846449C42.3731 0.941895 42.2613 1.07759 42.195 1.23645L40.9257 4.26395L37.674 4.54559C37.5023 4.56002 37.3387 4.62482 37.2036 4.73186C37.0686 4.83891 36.9682 4.98344 36.915 5.14732C36.8618 5.3112 36.8582 5.48715 36.9046 5.65309C36.951 5.81903 37.0453 5.96759 37.1758 6.08012L39.6427 8.2359L38.9034 11.4373C38.8643 11.6048 38.8754 11.7802 38.9354 11.9414C38.9954 12.1026 39.1017 12.2426 39.2408 12.3438C39.3799 12.445 39.5458 12.5029 39.7176 12.5103C39.8895 12.5178 40.0598 12.4744 40.2071 12.3856L42.9962 10.6903L45.7912 12.3856C45.9386 12.4744 46.1088 12.5178 46.2807 12.5103C46.4526 12.5029 46.6185 12.445 46.7576 12.3438C46.8967 12.2426 47.0029 12.1026 47.0629 11.9414C47.1229 11.7802 47.1341 11.6048 47.095 11.4373L46.3562 8.23262L48.8226 6.08012C48.953 5.9672 49.0472 5.81822 49.0932 5.65193C49.1393 5.48563 49.1351 5.30944 49.0812 5.14551ZM48.2489 5.41895L45.7825 7.57145C45.6625 7.67587 45.5732 7.81104 45.5242 7.96242C45.4753 8.1138 45.4685 8.27566 45.5047 8.43059L46.2457 11.6375L43.4528 9.94215C43.3166 9.85917 43.1601 9.81528 43.0005 9.81528C42.841 9.81528 42.6845 9.85917 42.5483 9.94215L39.7592 11.6375L40.4953 8.43278C40.5315 8.27785 40.5247 8.11598 40.4758 7.9646C40.4268 7.81322 40.3375 7.67805 40.2175 7.57364L37.75 5.42223C37.7498 5.4206 37.7498 5.41894 37.75 5.41731L41.0006 5.13621C41.1593 5.12223 41.3112 5.06517 41.4399 4.97121C41.5685 4.87724 41.6691 4.74993 41.7307 4.60301L43 1.57934L44.2687 4.60301C44.3304 4.74993 44.4309 4.87724 44.5596 4.97121C44.6883 5.06517 44.8401 5.12223 44.9988 5.13621L48.25 5.41731C48.25 5.41731 48.25 5.42059 48.25 5.42114L48.2489 5.41895Z" fill="#FFCE20"/>
<path d="M66.8242 6.25517L64.3578 8.40767L65.0966 11.6124C65.1357 11.7799 65.1246 11.9552 65.0646 12.1165C65.0046 12.2777 64.8983 12.4176 64.7592 12.5188C64.6201 12.62 64.4542 12.678 64.2824 12.6854C64.1105 12.6928 63.9402 12.6494 63.7929 12.5606L60.9978 10.8653L58.2088 12.5606C58.0614 12.6494 57.8912 12.6928 57.7193 12.6854C57.5474 12.678 57.3815 12.62 57.2424 12.5188C57.1033 12.4176 56.9971 12.2777 56.9371 12.1165C56.8771 11.9552 56.8659 11.7799 56.905 11.6124L57.6427 8.41095L55.1758 6.25517C55.0453 6.14264 54.951 5.99408 54.9046 5.82814C54.8582 5.6622 54.8618 5.48625 54.915 5.32237C54.9682 5.15849 55.0686 5.01396 55.2036 4.90691C55.3387 4.79987 55.5023 4.73507 55.674 4.72064L58.9257 4.439L60.195 1.4115C60.2613 1.25264 60.3731 1.11694 60.5163 1.0215C60.6596 0.926051 60.8279 0.875122 61 0.875122C61.1721 0.875122 61.3404 0.926051 61.4837 1.0215C61.6269 1.11694 61.7387 1.25264 61.805 1.4115L63.0781 4.439L66.3288 4.72064C66.5005 4.73507 66.6641 4.79987 66.7991 4.90691C66.9341 5.01396 67.0345 5.15849 67.0877 5.32237C67.1409 5.48625 67.1446 5.6622 67.0982 5.82814C67.0518 5.99408 66.9574 6.14264 66.827 6.25517H66.8242Z" fill="#FFCE20"/>
<path d="M67.0812 5.14551C67.0283 4.98221 66.9284 4.8381 66.7941 4.73113C66.6598 4.62416 66.497 4.55907 66.326 4.54395L63.0781 4.26395L61.805 1.23645C61.7387 1.07759 61.6269 0.941895 61.4837 0.846449C61.3404 0.751003 61.1721 0.700073 61 0.700073C60.8279 0.700073 60.6596 0.751003 60.5163 0.846449C60.3731 0.941895 60.2613 1.07759 60.195 1.23645L58.9257 4.26395L55.674 4.54559C55.5023 4.56002 55.3387 4.62482 55.2036 4.73186C55.0686 4.83891 54.9682 4.98344 54.915 5.14732C54.8618 5.3112 54.8582 5.48715 54.9046 5.65309C54.951 5.81903 55.0453 5.96759 55.1758 6.08012L57.6427 8.2359L56.9034 11.4373C56.8643 11.6048 56.8754 11.7802 56.9354 11.9414C56.9954 12.1026 57.1017 12.2426 57.2408 12.3438C57.3799 12.445 57.5458 12.5029 57.7176 12.5103C57.8895 12.5178 58.0598 12.4744 58.2071 12.3856L60.9962 10.6903L63.7912 12.3856C63.9386 12.4744 64.1088 12.5178 64.2807 12.5103C64.4526 12.5029 64.6185 12.445 64.7576 12.3438C64.8967 12.2426 65.0029 12.1026 65.0629 11.9414C65.1229 11.7802 65.1341 11.6048 65.095 11.4373L64.3562 8.23262L66.8226 6.08012C66.953 5.9672 67.0472 5.81822 67.0932 5.65193C67.1393 5.48563 67.1351 5.30944 67.0812 5.14551ZM66.2489 5.41895L63.7825 7.57145C63.6625 7.67587 63.5732 7.81104 63.5242 7.96242C63.4753 8.1138 63.4685 8.27566 63.5047 8.43059L64.2457 11.6375L61.4528 9.94215C61.3166 9.85917 61.1601 9.81528 61.0005 9.81528C60.841 9.81528 60.6845 9.85917 60.5483 9.94215L57.7592 11.6375L58.4953 8.43278C58.5315 8.27785 58.5247 8.11598 58.4758 7.9646C58.4268 7.81322 58.3375 7.67805 58.2175 7.57364L55.75 5.42223C55.7498 5.4206 55.7498 5.41894 55.75 5.41731L59.0006 5.13621C59.1593 5.12223 59.3112 5.06517 59.4399 4.97121C59.5685 4.87724 59.6691 4.74993 59.7307 4.60301L61 1.57934L62.2687 4.60301C62.3304 4.74993 62.4309 4.87724 62.5596 4.97121C62.6883 5.06517 62.8401 5.12223 62.9988 5.13621L66.25 5.41731C66.25 5.41731 66.25 5.42059 66.25 5.42114L66.2489 5.41895Z" fill="#FFCE20"/>
<path d="M84.8242 6.25517L82.3578 8.40767L83.0966 11.6124C83.1357 11.7799 83.1246 11.9552 83.0646 12.1165C83.0046 12.2777 82.8983 12.4176 82.7592 12.5188C82.6201 12.62 82.4542 12.678 82.2824 12.6854C82.1105 12.6928 81.9402 12.6494 81.7929 12.5606L78.9978 10.8653L76.2088 12.5606C76.0614 12.6494 75.8912 12.6928 75.7193 12.6854C75.5474 12.678 75.3815 12.62 75.2424 12.5188C75.1033 12.4176 74.9971 12.2777 74.9371 12.1165C74.8771 11.9552 74.8659 11.7799 74.905 11.6124L75.6427 8.41095L73.1758 6.25517C73.0453 6.14264 72.951 5.99408 72.9046 5.82814C72.8582 5.6622 72.8618 5.48625 72.915 5.32237C72.9682 5.15849 73.0686 5.01396 73.2036 4.90691C73.3387 4.79987 73.5023 4.73507 73.674 4.72064L76.9257 4.439L78.195 1.4115C78.2613 1.25264 78.3731 1.11694 78.5163 1.0215C78.6596 0.926051 78.8279 0.875122 79 0.875122C79.1721 0.875122 79.3404 0.926051 79.4837 1.0215C79.6269 1.11694 79.7387 1.25264 79.805 1.4115L81.0781 4.439L84.3288 4.72064C84.5005 4.73507 84.6641 4.79987 84.7991 4.90691C84.9341 5.01396 85.0345 5.15849 85.0877 5.32237C85.1409 5.48625 85.1446 5.6622 85.0982 5.82814C85.0518 5.99408 84.9574 6.14264 84.827 6.25517H84.8242Z" fill="#FFCE20"/>
<path d="M85.0812 5.14551C85.0283 4.98221 84.9284 4.8381 84.7941 4.73113C84.6598 4.62416 84.497 4.55907 84.326 4.54395L81.0781 4.26395L79.805 1.23645C79.7387 1.07759 79.6269 0.941895 79.4837 0.846449C79.3404 0.751003 79.1721 0.700073 79 0.700073C78.8279 0.700073 78.6596 0.751003 78.5163 0.846449C78.3731 0.941895 78.2613 1.07759 78.195 1.23645L76.9257 4.26395L73.674 4.54559C73.5023 4.56002 73.3387 4.62482 73.2036 4.73186C73.0686 4.83891 72.9682 4.98344 72.915 5.14732C72.8618 5.3112 72.8582 5.48715 72.9046 5.65309C72.951 5.81903 73.0453 5.96759 73.1758 6.08012L75.6427 8.2359L74.9034 11.4373C74.8643 11.6048 74.8754 11.7802 74.9354 11.9414C74.9954 12.1026 75.1017 12.2426 75.2408 12.3438C75.3799 12.445 75.5458 12.5029 75.7176 12.5103C75.8895 12.5178 76.0598 12.4744 76.2071 12.3856L78.9962 10.6903L81.7912 12.3856C81.9386 12.4744 82.1088 12.5178 82.2807 12.5103C82.4526 12.5029 82.6185 12.445 82.7576 12.3438C82.8967 12.2426 83.0029 12.1026 83.0629 11.9414C83.1229 11.7802 83.1341 11.6048 83.095 11.4373L82.3562 8.23262L84.8226 6.08012C84.953 5.9672 85.0472 5.81822 85.0932 5.65193C85.1393 5.48563 85.1351 5.30944 85.0812 5.14551ZM84.2489 5.41895L81.7825 7.57145C81.6625 7.67587 81.5732 7.81104 81.5242 7.96242C81.4753 8.1138 81.4685 8.27566 81.5047 8.43059L82.2457 11.6375L79.4528 9.94215C79.3166 9.85917 79.1601 9.81528 79.0005 9.81528C78.841 9.81528 78.6845 9.85917 78.5483 9.94215L75.7592 11.6375L76.4953 8.43278C76.5315 8.27785 76.5247 8.11598 76.4758 7.9646C76.4268 7.81322 76.3375 7.67805 76.2175 7.57364L73.75 5.42223C73.7498 5.4206 73.7498 5.41894 73.75 5.41731L77.0006 5.13621C77.1593 5.12223 77.3112 5.06517 77.4399 4.97121C77.5685 4.87724 77.6691 4.74993 77.7307 4.60301L79 1.57934L80.2687 4.60301C80.3304 4.74993 80.4309 4.87724 80.5596 4.97121C80.6883 5.06517 80.8401 5.12223 80.9988 5.13621L84.25 5.41731C84.25 5.41731 84.25 5.42059 84.25 5.42114L84.2489 5.41895Z" fill="#FFCE20"/>
</svg>
