<svg width="15" height="15" viewBox="0 0 15 15" fill="none" xmlns="http://www.w3.org/2000/svg">
<g opacity="0.5">
<path d="M12.9622 12.0867C12.1293 10.6468 10.8458 9.61427 9.34788 9.12482C10.0888 8.68374 10.6645 8.01164 10.9864 7.21174C11.3084 6.41183 11.3589 5.52835 11.1302 4.69697C10.9014 3.86558 10.4061 3.13227 9.72028 2.60964C9.03445 2.087 8.19601 1.80396 7.33374 1.80396C6.47146 1.80396 5.63303 2.087 4.94719 2.60964C4.26135 3.13227 3.76603 3.86558 3.5373 4.69697C3.30856 5.52835 3.35906 6.41183 3.68104 7.21174C4.00302 8.01164 4.57867 8.68374 5.3196 9.12482C3.8217 9.61372 2.53819 10.6462 1.7053 12.0867C1.67475 12.1365 1.6545 12.1919 1.64572 12.2497C1.63694 12.3074 1.63981 12.3664 1.65418 12.423C1.66854 12.4796 1.69411 12.5328 1.72936 12.5794C1.76461 12.626 1.80883 12.665 1.85942 12.6943C1.91001 12.7235 1.96594 12.7423 2.02391 12.7495C2.08188 12.7568 2.14072 12.7524 2.19695 12.7365C2.25318 12.7207 2.30567 12.6937 2.35131 12.6572C2.39696 12.6208 2.43484 12.5755 2.46272 12.5242C3.49303 10.7436 5.31413 9.68044 7.33374 9.68044C9.35334 9.68044 11.1744 10.7436 12.2048 12.5242C12.2326 12.5755 12.2705 12.6208 12.3162 12.6572C12.3618 12.6937 12.4143 12.7207 12.4705 12.7365C12.5268 12.7524 12.5856 12.7568 12.6436 12.7495C12.7015 12.7423 12.7575 12.7235 12.808 12.6943C12.8586 12.665 12.9029 12.626 12.9381 12.5794C12.9734 12.5328 12.9989 12.4796 13.0133 12.423C13.0277 12.3664 13.0305 12.3074 13.0218 12.2497C13.013 12.1919 12.9927 12.1365 12.9622 12.0867ZM4.27124 5.74294C4.27124 5.13724 4.45085 4.54513 4.78736 4.04151C5.12387 3.53788 5.60217 3.14536 6.16177 2.91356C6.72137 2.68177 7.33713 2.62112 7.9312 2.73929C8.52527 2.85746 9.07095 3.14913 9.49925 3.57743C9.92755 4.00573 10.2192 4.55141 10.3374 5.14548C10.4556 5.73955 10.3949 6.35531 10.1631 6.91491C9.93132 7.47451 9.53879 7.95281 9.03517 8.28932C8.53154 8.62583 7.93944 8.80544 7.33374 8.80544C6.52178 8.80457 5.74332 8.48164 5.16918 7.9075C4.59504 7.33336 4.2721 6.5549 4.27124 5.74294Z" fill="#0E0F29"/>
</g>
</svg>
